<?xml version="1.0" encoding="utf-8"?><svg version="1.1" id="Layer_1" xmlns="http://www.w3.org/2000/svg" xmlns:xlink="http://www.w3.org/1999/xlink" x="0px" y="0px" viewBox="0 0 103.08 122.88" style="enable-background:new 0 0 103.08 122.88" xml:space="preserve"><style type="text/css">.st0{fill-rule:evenodd;clip-rule:evenodd;}</style><g><path class="st0" d="M90.57,57.62v20.52c0,6.08-15.49,6.08-15.49,0V57.62C75.08,51.54,90.57,51.54,90.57,57.62L90.57,57.62z M4.57,0h93.95c1.26,0,2.4,0.51,3.23,1.34c0.83,0.83,1.34,1.97,1.34,3.23v113.75c0,1.26-0.51,2.4-1.34,3.23 c-0.83,0.83-1.97,1.34-3.23,1.34H4.57c-1.26,0-2.4-0.51-3.23-1.34C0.51,120.71,0,119.57,0,118.31V4.57c0-1.26,0.51-2.4,1.34-3.23 C2.17,0.51,3.31,0,4.57,0L4.57,0z M41.83,17.37v7.81c0,1.68-3.16,1.68-3.16,0v-7.82l-2.67,2.6c-1.25,1.09-2.93-0.78-1.69-1.9 l5.1-4.76c0.48-0.43,1.22-0.42,1.69,0.01c1.6,1.53,3.49,3.24,5.1,4.77c1.21,1.14-0.5,2.96-1.71,1.87L41.83,17.37L41.83,17.37z M27.24,33.35h29.65c2.35,0,4.49,0.96,6.04,2.51c1.55,1.55,2.51,3.69,2.51,6.04v58.68c0,2.35-1.27,4.49-2.82,6.04 c-1.55,1.55-3.38,2.51-5.73,2.51H27.24c-2.35,0-4.49-0.96-6.04-2.51c-1.55-1.55-2.51-3.69-2.51-6.04V41.89 c0-2.35,0.96-4.49,2.51-6.04C22.75,34.31,24.89,33.35,27.24,33.35L27.24,33.35z M38.25,38.23c0-0.07,0-0.14,0.01-0.21H27.55 c-1.23,0-2.35,0.51-3.17,1.32c-0.81,0.81-1.32,1.94-1.32,3.17v57.45c0,1.23,0.51,2.35,1.32,3.17c0.81,0.81,1.94,1.32,3.17,1.32 h10.71c-0.01-0.07-0.01-0.14-0.01-0.21V38.23L38.25,38.23z M42.31,38.02c0.01,0.07,0.01,0.14,0.01,0.21v66.01 c0,0.07,0,0.14-0.01,0.21h14.28c1.23,0,2.35-0.51,3.17-1.32c0.81-0.81,1.32-1.93,1.32-3.17V42.51c0-1.23-0.51-2.35-1.32-3.17 c-0.81-0.81-1.93-1.32-3.17-1.32H42.31L42.31,38.02z M97.67,5.63H5.41c-0.05,0-0.11,0.02-0.14,0.06C5.23,5.73,5.21,5.78,5.21,5.83 v111.21c0,0.05,0.02,0.11,0.06,0.14c0.04,0.04,0.09,0.06,0.14,0.06h92.26c0.11,0,0.21-0.1,0.21-0.21V5.83 c0-0.05-0.02-0.11-0.06-0.14C97.77,5.65,97.72,5.63,97.67,5.63L97.67,5.63z M83.53,70.43c0-0.19-0.08-0.37-0.21-0.5 c-0.13-0.13-0.3-0.21-0.5-0.21c-0.19,0-0.37,0.08-0.5,0.21c-0.13,0.13-0.21,0.3-0.21,0.5v4.9l-2.5-2.19 c-0.14-0.13-0.33-0.18-0.51-0.17c-0.18,0.01-0.36,0.09-0.49,0.23c-0.13,0.14-0.19,0.33-0.18,0.51c0.01,0.18,0.09,0.35,0.23,0.48 l3.68,3.21c0.14,0.12,0.31,0.18,0.47,0.18c0.17,0,0.33-0.06,0.46-0.18l3.68-3.21c0.14-0.13,0.22-0.3,0.23-0.48 c0.01-0.18-0.05-0.36-0.18-0.51l-0.01-0.01c-0.13-0.14-0.3-0.22-0.48-0.23h0c-0.18-0.01-0.36,0.05-0.51,0.18l-2.5,2.18L83.53,70.43 L83.53,70.43z M83.53,60.43v4.9c0,0.93-1.41,0.93-1.41,0v-4.9l-2.5,2.19c-0.14,0.13-0.33,0.18-0.51,0.17 c-0.18-0.01-0.36-0.09-0.49-0.23c-0.13-0.14-0.19-0.33-0.18-0.51c0.01-0.18,0.09-0.35,0.23-0.48l3.68-3.21 c0.14-0.12,0.31-0.18,0.47-0.18c0.17,0,0.33,0.06,0.46,0.18l3.68,3.21c0.14,0.13,0.22,0.3,0.23,0.48c0.01,0.18-0.05,0.36-0.18,0.51 l-0.01,0.01c-0.13,0.14-0.3,0.22-0.48,0.23h0c-0.18,0.01-0.36-0.05-0.51-0.18L83.53,60.43L83.53,60.43z"/></g></svg>